<svg class="animated" id="freepik_stories-starman" xmlns="http://www.w3.org/2000/svg" xmlns:xlink="http://www.w3.org/1999/xlink" viewBox="0 0 500 500" version="1.1" xmlns:svgjs="http://svgjs.com/svgjs"><style>svg#freepik_stories-starman:not(.animated) .animable {opacity: 0;}svg#freepik_stories-starman.animated #freepik--Stars--inject-19 {animation: 1s 1 forwards cubic-bezier(.36,-0.01,.5,1.38) zoomIn,6s Infinite  linear heartbeat;animation-delay: 0s,1s;}svg#freepik_stories-starman.animated #freepik--earth-globe--inject-19 {animation: 1.5s Infinite  linear wind;animation-delay: 0s;}            @keyframes zoomIn {                0% {                    opacity: 0;                    transform: scale(0.5);                }                100% {                    opacity: 1;                    transform: scale(1);                }            }                    @keyframes heartbeat {                0% {                    transform: scale(1);                }                10% {                    transform: scale(1.1);                }                30% {                    transform: scale(1);                }                40% {                    transform: scale(1);                }                50% {                    transform: scale(1.1);                }                60% {                    transform: scale(1);                }                100% {                    transform: scale(1);                }            }                    @keyframes wind {                0% {                    transform: rotate( 0deg );                }                25% {                    transform: rotate( 1deg );                }                75% {                    transform: rotate( -1deg );                }            }        .animator-hidden { display: none; }</style><g id="freepik--Stars--inject-19" class="animable animator-active" style="transform-origin: 247.342px 260.1px;"><path d="M375,198.32a3,3,0,1,1-2.37-3.55A3,3,0,0,1,375,198.32Z" style="fill: #B0BEC5; transform-origin: 372.062px 197.716px;" id="ellg56kiokqcp" class="animable"></path><path d="M265.6,141a3,3,0,1,1-2.37-3.55A3,3,0,0,1,265.6,141Z" style="fill: #B0BEC5; transform-origin: 262.661px 140.396px;" id="elmayv36py92d" class="animable"></path><path d="M198,108.4a3,3,0,1,1-2.37-3.56A3,3,0,0,1,198,108.4Z" style="fill: #B0BEC5; transform-origin: 195.063px 107.786px;" id="ellwnvqghjma" class="animable"></path><path d="M155.75,169.6a3,3,0,1,1-2.37-3.56A3,3,0,0,1,155.75,169.6Z" style="fill: #B0BEC5; transform-origin: 152.813px 168.986px;" id="el3g9cuvfse5" class="animable"></path><path d="M93.37,208.39A3,3,0,1,1,91,204.84,3,3,0,0,1,93.37,208.39Z" style="fill: #B0BEC5; transform-origin: 90.4315px 207.786px;" id="elfzru7pdjsnw" class="animable"></path><path d="M331.86,151.76a3,3,0,1,1-2.37-3.56A3,3,0,0,1,331.86,151.76Z" style="fill: #B0BEC5; transform-origin: 328.923px 151.146px;" id="elf8mqr6arzw" class="animable"></path><path d="M352.85,153a1.51,1.51,0,1,1-1.19-1.78A1.51,1.51,0,0,1,352.85,153Z" style="fill: #B0BEC5; transform-origin: 351.37px 152.702px;" id="eludnhrzuwf3d" class="animable"></path><path d="M365.67,230.91a1.51,1.51,0,1,1-1.19-1.77A1.52,1.52,0,0,1,365.67,230.91Z" style="fill: #B0BEC5; transform-origin: 364.187px 230.621px;" id="eli32q4xo772p" class="animable"></path><path d="M409.81,240.78A1.5,1.5,0,0,1,408,242a1.51,1.51,0,1,1,1.77-1.18Z" style="fill: #B0BEC5; transform-origin: 408.295px 240.522px;" id="el5ypxyb6lmrn" class="animable"></path><path d="M298,140.69a1.51,1.51,0,1,1-1.19-1.78A1.5,1.5,0,0,1,298,140.69Z" style="fill: #B0BEC5; transform-origin: 296.521px 140.392px;" id="eleyfakxgwe8" class="animable"></path><path d="M301.46,160.48a1.51,1.51,0,0,1-3-.59,1.51,1.51,0,1,1,3,.59Z" style="fill: #B0BEC5; transform-origin: 299.96px 160.185px;" id="elnntap9u0fo" class="animable"></path><path d="M282.13,130.74a1.49,1.49,0,0,1-1.77,1.18,1.51,1.51,0,1,1,1.77-1.18Z" style="fill: #B0BEC5; transform-origin: 280.65px 130.44px;" id="el0npmm5t3j3q" class="animable"></path><path d="M221.81,136.57a1.51,1.51,0,1,1-1.19-1.78A1.51,1.51,0,0,1,221.81,136.57Z" style="fill: #B0BEC5; transform-origin: 220.33px 136.272px;" id="el4k1g3b8nu85" class="animable"></path><path d="M114.25,146.92a1.51,1.51,0,1,1-1.18-1.77A1.51,1.51,0,0,1,114.25,146.92Z" style="fill: #B0BEC5; transform-origin: 112.768px 146.63px;" id="el0cri357wcu06" class="animable"></path><path d="M267.16,99.22A1.51,1.51,0,1,1,266,97.44,1.52,1.52,0,0,1,267.16,99.22Z" style="fill: #B0BEC5; transform-origin: 265.68px 98.9159px;" id="elc6yoqib3qmn" class="animable"></path><path d="M198.74,130.65a1.52,1.52,0,1,1-1.19-1.78A1.52,1.52,0,0,1,198.74,130.65Z" style="fill: #B0BEC5; transform-origin: 197.248px 130.36px;" id="eldzqgd7otkf" class="animable"></path><path d="M138.28,193.84a1.51,1.51,0,1,1-1.19-1.78A1.52,1.52,0,0,1,138.28,193.84Z" style="fill: #B0BEC5; transform-origin: 136.799px 193.542px;" id="eljffmbxvo8vq" class="animable"></path><path d="M134.63,155.54a1.51,1.51,0,1,1-1.19-1.78A1.51,1.51,0,0,1,134.63,155.54Z" style="fill: #B0BEC5; transform-origin: 133.15px 155.242px;" id="elaushyjxkskn" class="animable"></path><path d="M156.29,183.88a1.51,1.51,0,1,1-1.19-1.78A1.52,1.52,0,0,1,156.29,183.88Z" style="fill: #B0BEC5; transform-origin: 154.809px 183.582px;" id="elu21th86oegb" class="animable"></path><path d="M156.15,133.19a1.51,1.51,0,1,1-1.18-1.77A1.49,1.49,0,0,1,156.15,133.19Z" style="fill: #B0BEC5; transform-origin: 154.67px 132.9px;" id="el1ipzwij2mt4" class="animable"></path><path d="M391.23,180.71a1.51,1.51,0,1,1-1.18-1.78A1.5,1.5,0,0,1,391.23,180.71Z" style="fill: #B0BEC5; transform-origin: 389.751px 180.41px;" id="elvlu89g11y19" class="animable"></path><path d="M115.41,209.61a1.51,1.51,0,1,1-1.19-1.77A1.52,1.52,0,0,1,115.41,209.61Z" style="fill: #B0BEC5; transform-origin: 113.927px 209.321px;" id="elog6oujyt5lg" class="animable"></path><path d="M119.71,186.76a1.51,1.51,0,1,1-1.19-1.77A1.52,1.52,0,0,1,119.71,186.76Z" style="fill: #B0BEC5; transform-origin: 118.227px 186.471px;" id="ellzaz8igok1b" class="animable"></path><path d="M123.59,221.11a1.51,1.51,0,1,1-1.19-1.78A1.51,1.51,0,0,1,123.59,221.11Z" style="fill: #B0BEC5; transform-origin: 122.11px 220.812px;" id="el8xrnqylpln" class="animable"></path><path d="M403.5,190.67a1.51,1.51,0,1,1-1.19-1.77A1.52,1.52,0,0,1,403.5,190.67Z" style="fill: #B0BEC5; transform-origin: 402.017px 190.381px;" id="elspjpnimq9kb" class="animable"></path><path d="M125.2,256.25a1.51,1.51,0,1,1-1.18-1.78A1.5,1.5,0,0,1,125.2,256.25Z" style="fill: #B0BEC5; transform-origin: 123.721px 255.95px;" id="elx4bko33bo7i" class="animable"></path><path d="M145.66,314.57a3,3,0,1,1-4.18-.9A3,3,0,0,1,145.66,314.57Z" style="fill: #B0BEC5; transform-origin: 143.127px 316.177px;" id="el736nfef69a3" class="animable"></path><path d="M116.22,269.56a1.51,1.51,0,1,1-2.09-.45A1.5,1.5,0,0,1,116.22,269.56Z" style="fill: #B0BEC5; transform-origin: 114.951px 270.376px;" id="el1o9ov07i01h" class="animable"></path><path d="M120.18,320.24a1.51,1.51,0,1,1-2.09-.45A1.52,1.52,0,0,1,120.18,320.24Z" style="fill: #B0BEC5; transform-origin: 118.911px 321.06px;" id="el0q7srolkmzk" class="animable"></path><path d="M110.8,296.8a1.51,1.51,0,1,1-2.09-.45A1.52,1.52,0,0,1,110.8,296.8Z" style="fill: #B0BEC5; transform-origin: 109.531px 297.619px;" id="elsre07jctkm" class="animable"></path><path d="M128.82,285.16a1.51,1.51,0,1,1-2.09-.45A1.52,1.52,0,0,1,128.82,285.16Z" style="fill: #B0BEC5; transform-origin: 127.551px 285.98px;" id="el6h4ljtbsf1g" class="animable"></path><path d="M124.67,299.35a1.51,1.51,0,1,1-2.08-.45A1.5,1.5,0,0,1,124.67,299.35Z" style="fill: #B0BEC5; transform-origin: 123.403px 300.17px;" id="elhufhdp4opmk" class="animable"></path><path d="M138.58,323.1a1.51,1.51,0,1,1-2.09-.45A1.52,1.52,0,0,1,138.58,323.1Z" style="fill: #B0BEC5; transform-origin: 137.31px 323.92px;" id="elpsag37jv6u9" class="animable"></path><path d="M150.31,323.44a1.51,1.51,0,1,1-2.09-.45A1.52,1.52,0,0,1,150.31,323.44Z" style="fill: #B0BEC5; transform-origin: 149.041px 324.26px;" id="elgepw0o7bq9e" class="animable"></path><path d="M167.43,371.92a3,3,0,1,1,4.09-1.23A3,3,0,0,1,167.43,371.92Z" style="fill: #B0BEC5; transform-origin: 168.868px 369.287px;" id="el24pzuxx75vf" class="animable"></path><path d="M91.86,273.18a1.51,1.51,0,1,1,2-.61A1.51,1.51,0,0,1,91.86,273.18Z" style="fill: #B0BEC5; transform-origin: 92.5422px 271.833px;" id="el0gsljrxzxlx" class="animable"></path><path d="M187,354.66a1.51,1.51,0,1,1,2.05-.61A1.51,1.51,0,0,1,187,354.66Z" style="fill: #B0BEC5; transform-origin: 187.721px 353.333px;" id="elg7trhu5yh6t" class="animable"></path><path d="M83.45,246.71a1.52,1.52,0,1,1,2-.62A1.52,1.52,0,0,1,83.45,246.71Z" style="fill: #B0BEC5; transform-origin: 84.1237px 245.347px;" id="el5wqsuf36iq9" class="animable"></path><path d="M73.29,265.6a1.51,1.51,0,1,1,2-.62A1.51,1.51,0,0,1,73.29,265.6Z" style="fill: #B0BEC5; transform-origin: 73.9678px 264.251px;" id="el1fwoqne3rsv" class="animable"></path><path d="M70.07,251.17a1.51,1.51,0,1,1,2.05-.61A1.5,1.5,0,0,1,70.07,251.17Z" style="fill: #B0BEC5; transform-origin: 70.791px 249.845px;" id="ela1xj4jeibhr" class="animable"></path><path d="M154.15,348.23a1.51,1.51,0,1,1,2-.61A1.51,1.51,0,0,1,154.15,348.23Z" style="fill: #B0BEC5; transform-origin: 154.832px 346.883px;" id="elgs7qudxe8e" class="animable"></path><path d="M169.51,361a1.51,1.51,0,1,1,2-.61A1.51,1.51,0,0,1,169.51,361Z" style="fill: #B0BEC5; transform-origin: 170.192px 359.653px;" id="eljduo7r6mre" class="animable"></path><path d="M159.07,366.4a1.51,1.51,0,1,1,2.05-.61A1.5,1.5,0,0,1,159.07,366.4Z" style="fill: #B0BEC5; transform-origin: 159.791px 365.075px;" id="elaz4ehz8sw9n" class="animable"></path><path d="M251.17,392.87a3,3,0,1,1,1.9-3.82A3,3,0,0,1,251.17,392.87Z" style="fill: #B0BEC5; transform-origin: 250.231px 390.021px;" id="el5vph1m9mvy3" class="animable"></path><path d="M85.37,314.69a3,3,0,1,1,1.91-3.83A3,3,0,0,1,85.37,314.69Z" style="fill: #B0BEC5; transform-origin: 84.4434px 311.837px;" id="elteqrjdpry8i" class="animable"></path><path d="M318.58,391.15a1.51,1.51,0,1,1,.95-1.92A1.52,1.52,0,0,1,318.58,391.15Z" style="fill: #B0BEC5; transform-origin: 318.1px 389.718px;" id="elzsm80hk1f7b" class="animable"></path><path d="M343.16,392.09a1.51,1.51,0,1,1,.95-1.91A1.5,1.5,0,0,1,343.16,392.09Z" style="fill: #B0BEC5; transform-origin: 342.679px 390.659px;" id="elkcuakbx2eg" class="animable"></path><path d="M117.24,363.93a1.51,1.51,0,1,1,1-1.91A1.51,1.51,0,0,1,117.24,363.93Z" style="fill: #B0BEC5; transform-origin: 116.803px 362.485px;" id="eljwlg8vfft2l" class="animable"></path><path d="M293.53,379.14a1.51,1.51,0,1,1,1-1.91A1.5,1.5,0,0,1,293.53,379.14Z" style="fill: #B0BEC5; transform-origin: 293.095px 377.695px;" id="elgu7fsjpsj38" class="animable"></path><path d="M300.34,399.49a1.51,1.51,0,1,1,1-1.92A1.52,1.52,0,0,1,300.34,399.49Z" style="fill: #B0BEC5; transform-origin: 299.905px 398.044px;" id="el13cjbc1hu2u" class="animable"></path><path d="M245.54,422.73a1.51,1.51,0,1,1,1-1.92A1.52,1.52,0,0,1,245.54,422.73Z" style="fill: #B0BEC5; transform-origin: 245.105px 421.284px;" id="el6fxtazt88hr" class="animable"></path><path d="M287.62,392a1.51,1.51,0,1,1,1-1.92A1.52,1.52,0,0,1,287.62,392Z" style="fill: #B0BEC5; transform-origin: 287.185px 390.554px;" id="elxbv5fkt81q" class="animable"></path><path d="M244.66,383.9a1.51,1.51,0,1,1,1-1.91A1.51,1.51,0,0,1,244.66,383.9Z" style="fill: #B0BEC5; transform-origin: 244.223px 382.455px;" id="el3mqfv8oqbr3" class="animable"></path><path d="M241.42,395.18a1.51,1.51,0,1,1,1-1.91A1.51,1.51,0,0,1,241.42,395.18Z" style="fill: #B0BEC5; transform-origin: 240.983px 393.735px;" id="eldwhfhlxx8cm" class="animable"></path><path d="M340.58,306.94a3,3,0,1,1,.74,4.2A3,3,0,0,1,340.58,306.94Z" style="fill: #B0BEC5; transform-origin: 343.028px 308.674px;" id="elvxp82hcbta" class="animable"></path><path d="M358.73,347.86a3,3,0,1,1,.74,4.2A3,3,0,0,1,358.73,347.86Z" style="fill: #B0BEC5; transform-origin: 361.178px 349.594px;" id="elpkdkzd1inva" class="animable"></path><path d="M387.57,255.48a3,3,0,1,1,.74,4.21A3,3,0,0,1,387.57,255.48Z" style="fill: #B0BEC5; transform-origin: 390.013px 257.221px;" id="el8k9yas1y08l" class="animable"></path><path d="M354.31,253.6a3,3,0,1,1,.74,4.21A3,3,0,0,1,354.31,253.6Z" style="fill: #B0BEC5; transform-origin: 356.753px 255.341px;" id="el4c68eg9375d" class="animable"></path><path d="M310,351.15a1.51,1.51,0,1,1,.37,2.1A1.51,1.51,0,0,1,310,351.15Z" style="fill: #B0BEC5; transform-origin: 311.238px 352.014px;" id="elhga7gbnbeyq" class="animable"></path><path d="M337.24,345.92a1.51,1.51,0,1,1,.37,2.11A1.51,1.51,0,0,1,337.24,345.92Z" style="fill: #B0BEC5; transform-origin: 338.473px 346.791px;" id="elpzl8y64ikmm" class="animable"></path><path d="M352.91,369.4a1.51,1.51,0,1,1,.37,2.1A1.51,1.51,0,0,1,352.91,369.4Z" style="fill: #B0BEC5; transform-origin: 354.148px 370.264px;" id="el73ivp7ao9vh" class="animable"></path><path d="M192.88,400.94a1.51,1.51,0,1,1,.37,2.1A1.51,1.51,0,0,1,192.88,400.94Z" style="fill: #B0BEC5; transform-origin: 194.118px 401.805px;" id="eleqc2s7874ji" class="animable"></path><path d="M334.38,332.11a1.51,1.51,0,1,1,.37,2.1A1.5,1.5,0,0,1,334.38,332.11Z" style="fill: #B0BEC5; transform-origin: 335.616px 332.974px;" id="el40anryh3ct3" class="animable"></path><path d="M420.51,271.13a1.51,1.51,0,1,1,.37,2.1A1.51,1.51,0,0,1,420.51,271.13Z" style="fill: #B0BEC5; transform-origin: 421.748px 271.994px;" id="elpyqwpg8r5v" class="animable"></path><path d="M378.22,315.35a1.51,1.51,0,1,1,.37,2.11A1.51,1.51,0,0,1,378.22,315.35Z" style="fill: #B0BEC5; transform-origin: 379.453px 316.221px;" id="elzexcvdanykg" class="animable"></path><path d="M393.23,347.1a1.51,1.51,0,1,1,.37,2.1A1.51,1.51,0,0,1,393.23,347.1Z" style="fill: #B0BEC5; transform-origin: 394.468px 347.964px;" id="elcd7zeqhglh9" class="animable"></path><path d="M422.66,305.45a1.51,1.51,0,1,1,.37,2.11A1.52,1.52,0,0,1,422.66,305.45Z" style="fill: #B0BEC5; transform-origin: 423.895px 306.321px;" id="elkuhl1y5igv" class="animable"></path><path d="M377.56,297a1.51,1.51,0,1,1,.37,2.1A1.51,1.51,0,0,1,377.56,297Z" style="fill: #B0BEC5; transform-origin: 378.798px 297.864px;" id="ela88wdwpgw17" class="animable"></path><path d="M317.44,130.54a1.51,1.51,0,0,1-3-.59,1.51,1.51,0,1,1,3,.59Z" style="fill: #B0BEC5; transform-origin: 315.94px 130.245px;" id="el0sp0baacbrs" class="animable"></path><path d="M334.72,185.3a1.52,1.52,0,1,1-1.19-1.78A1.52,1.52,0,0,1,334.72,185.3Z" style="fill: #B0BEC5; transform-origin: 333.228px 185.01px;" id="elz7xnx4dia7d" class="animable"></path><path d="M352.61,174.39a1.51,1.51,0,1,1-1.19-1.78A1.52,1.52,0,0,1,352.61,174.39Z" style="fill: #B0BEC5; transform-origin: 351.129px 174.092px;" id="el7udzbxj37jd" class="animable"></path><path d="M401.31,215a1.51,1.51,0,1,1-1.19-1.78A1.52,1.52,0,0,1,401.31,215Z" style="fill: #B0BEC5; transform-origin: 399.829px 214.702px;" id="elyxj8m64g77" class="animable"></path><path d="M235.37,118.46a1.51,1.51,0,1,1-1.19-1.78A1.51,1.51,0,0,1,235.37,118.46Z" style="fill: #B0BEC5; transform-origin: 233.89px 118.162px;" id="el1bfa9zfvr4x" class="animable"></path><path d="M187.21,155.54a1.51,1.51,0,1,1-1.19-1.78A1.51,1.51,0,0,1,187.21,155.54Z" style="fill: #B0BEC5; transform-origin: 185.73px 155.242px;" id="el73hg79m3oty" class="animable"></path><g id="el297ljiq1o8"><g style="opacity: 0.5; transform-origin: 247.342px 260.1px;" class="animable" id="elafyzplf64ro"><path d="M375,198.32a3,3,0,1,1-2.37-3.55A3,3,0,0,1,375,198.32Z" style="fill: rgb(255, 255, 255); transform-origin: 372.062px 197.716px;" id="elagd9fgx6w3e" class="animable"></path><path d="M265.6,141a3,3,0,1,1-2.37-3.55A3,3,0,0,1,265.6,141Z" style="fill: rgb(255, 255, 255); transform-origin: 262.661px 140.396px;" id="elb8d2vwj28w" class="animable"></path><path d="M198,108.4a3,3,0,1,1-2.37-3.56A3,3,0,0,1,198,108.4Z" style="fill: rgb(255, 255, 255); transform-origin: 195.063px 107.786px;" id="elb0ho7yrn5ep" class="animable"></path><path d="M155.75,169.6a3,3,0,1,1-2.37-3.56A3,3,0,0,1,155.75,169.6Z" style="fill: rgb(255, 255, 255); transform-origin: 152.813px 168.986px;" id="elsfhqmlaj1s" class="animable"></path><path d="M93.37,208.39A3,3,0,1,1,91,204.84,3,3,0,0,1,93.37,208.39Z" style="fill: rgb(255, 255, 255); transform-origin: 90.4315px 207.786px;" id="elcbf5xdddnu" class="animable"></path><path d="M331.86,151.76a3,3,0,1,1-2.37-3.56A3,3,0,0,1,331.86,151.76Z" style="fill: rgb(255, 255, 255); transform-origin: 328.923px 151.146px;" id="el6635koa8r05" class="animable"></path><path d="M352.85,153a1.51,1.51,0,1,1-1.19-1.78A1.51,1.51,0,0,1,352.85,153Z" style="fill: rgb(255, 255, 255); transform-origin: 351.37px 152.702px;" id="el8wz414htjxq" class="animable"></path><path d="M365.67,230.91a1.51,1.51,0,1,1-1.19-1.77A1.52,1.52,0,0,1,365.67,230.91Z" style="fill: rgb(255, 255, 255); transform-origin: 364.187px 230.621px;" id="elsfv1zdwa15" class="animable"></path><path d="M409.81,240.78A1.5,1.5,0,0,1,408,242a1.51,1.51,0,1,1,1.77-1.18Z" style="fill: rgb(255, 255, 255); transform-origin: 408.295px 240.522px;" id="elwy38ys1ero" class="animable"></path><path d="M298,140.69a1.51,1.51,0,1,1-1.19-1.78A1.5,1.5,0,0,1,298,140.69Z" style="fill: rgb(255, 255, 255); transform-origin: 296.521px 140.392px;" id="eltor3tefemfn" class="animable"></path><path d="M301.46,160.48a1.51,1.51,0,0,1-3-.59,1.51,1.51,0,1,1,3,.59Z" style="fill: rgb(255, 255, 255); transform-origin: 299.96px 160.185px;" id="elyf06g6pyu69" class="animable"></path><path d="M282.13,130.74a1.49,1.49,0,0,1-1.77,1.18,1.51,1.51,0,1,1,1.77-1.18Z" style="fill: rgb(255, 255, 255); transform-origin: 280.65px 130.44px;" id="elq5k0tmskyil" class="animable"></path><path d="M221.81,136.57a1.51,1.51,0,1,1-1.19-1.78A1.51,1.51,0,0,1,221.81,136.57Z" style="fill: rgb(255, 255, 255); transform-origin: 220.33px 136.272px;" id="el0mlkhocn106" class="animable"></path><path d="M114.25,146.92a1.51,1.51,0,1,1-1.18-1.77A1.51,1.51,0,0,1,114.25,146.92Z" style="fill: rgb(255, 255, 255); transform-origin: 112.768px 146.63px;" id="ely1apppwwmnh" class="animable"></path><path d="M267.16,99.22A1.51,1.51,0,1,1,266,97.44,1.52,1.52,0,0,1,267.16,99.22Z" style="fill: rgb(255, 255, 255); transform-origin: 265.68px 98.9159px;" id="elmtkmzdpgugi" class="animable"></path><path d="M198.74,130.65a1.52,1.52,0,1,1-1.19-1.78A1.52,1.52,0,0,1,198.74,130.65Z" style="fill: rgb(255, 255, 255); transform-origin: 197.248px 130.36px;" id="elaaszu4f7ff8" class="animable"></path><path d="M138.28,193.84a1.51,1.51,0,1,1-1.19-1.78A1.52,1.52,0,0,1,138.28,193.84Z" style="fill: rgb(255, 255, 255); transform-origin: 136.799px 193.542px;" id="elefugl1q4ymp" class="animable"></path><path d="M134.63,155.54a1.51,1.51,0,1,1-1.19-1.78A1.51,1.51,0,0,1,134.63,155.54Z" style="fill: rgb(255, 255, 255); transform-origin: 133.15px 155.242px;" id="el7z71tj9yqb" class="animable"></path><path d="M156.29,183.88a1.51,1.51,0,1,1-1.19-1.78A1.52,1.52,0,0,1,156.29,183.88Z" style="fill: rgb(255, 255, 255); transform-origin: 154.809px 183.582px;" id="elc7wzn89mvdf" class="animable"></path><path d="M156.15,133.19a1.51,1.51,0,1,1-1.18-1.77A1.49,1.49,0,0,1,156.15,133.19Z" style="fill: rgb(255, 255, 255); transform-origin: 154.67px 132.9px;" id="el92fksig0dpu" class="animable"></path><path d="M391.23,180.71a1.51,1.51,0,1,1-1.18-1.78A1.5,1.5,0,0,1,391.23,180.71Z" style="fill: rgb(255, 255, 255); transform-origin: 389.751px 180.41px;" id="el8an15xr8dfp" class="animable"></path><path d="M115.41,209.61a1.51,1.51,0,1,1-1.19-1.77A1.52,1.52,0,0,1,115.41,209.61Z" style="fill: rgb(255, 255, 255); transform-origin: 113.927px 209.321px;" id="elmazzjn302r8" class="animable"></path><path d="M119.71,186.76a1.51,1.51,0,1,1-1.19-1.77A1.52,1.52,0,0,1,119.71,186.76Z" style="fill: rgb(255, 255, 255); transform-origin: 118.227px 186.471px;" id="ela60seq9gzal" class="animable"></path><path d="M123.59,221.11a1.51,1.51,0,1,1-1.19-1.78A1.51,1.51,0,0,1,123.59,221.11Z" style="fill: rgb(255, 255, 255); transform-origin: 122.11px 220.812px;" id="elyosvn6qtu1b" class="animable"></path><path d="M403.5,190.67a1.51,1.51,0,1,1-1.19-1.77A1.52,1.52,0,0,1,403.5,190.67Z" style="fill: rgb(255, 255, 255); transform-origin: 402.017px 190.381px;" id="elvbs5tffmw9" class="animable"></path><path d="M125.2,256.25a1.51,1.51,0,1,1-1.18-1.78A1.5,1.5,0,0,1,125.2,256.25Z" style="fill: rgb(255, 255, 255); transform-origin: 123.721px 255.95px;" id="elbsrtzzcrygo" class="animable"></path><path d="M145.66,314.57a3,3,0,1,1-4.18-.9A3,3,0,0,1,145.66,314.57Z" style="fill: rgb(255, 255, 255); transform-origin: 143.127px 316.177px;" id="el55v17n5stzk" class="animable"></path><path d="M116.22,269.56a1.51,1.51,0,1,1-2.09-.45A1.5,1.5,0,0,1,116.22,269.56Z" style="fill: rgb(255, 255, 255); transform-origin: 114.951px 270.376px;" id="elg44r77b24dt" class="animable"></path><path d="M120.18,320.24a1.51,1.51,0,1,1-2.09-.45A1.52,1.52,0,0,1,120.18,320.24Z" style="fill: rgb(255, 255, 255); transform-origin: 118.911px 321.06px;" id="el0rqs0opeas9" class="animable"></path><path d="M110.8,296.8a1.51,1.51,0,1,1-2.09-.45A1.52,1.52,0,0,1,110.8,296.8Z" style="fill: rgb(255, 255, 255); transform-origin: 109.531px 297.619px;" id="el6qiykroneum" class="animable"></path><path d="M128.82,285.16a1.51,1.51,0,1,1-2.09-.45A1.52,1.52,0,0,1,128.82,285.16Z" style="fill: rgb(255, 255, 255); transform-origin: 127.551px 285.98px;" id="eli1y56jelq9" class="animable"></path><path d="M124.67,299.35a1.51,1.51,0,1,1-2.08-.45A1.5,1.5,0,0,1,124.67,299.35Z" style="fill: rgb(255, 255, 255); transform-origin: 123.403px 300.17px;" id="el8m8z7qn9t87" class="animable"></path><path d="M138.58,323.1a1.51,1.51,0,1,1-2.09-.45A1.52,1.52,0,0,1,138.58,323.1Z" style="fill: rgb(255, 255, 255); transform-origin: 137.31px 323.92px;" id="eljdprpnanz3d" class="animable"></path><path d="M150.31,323.44a1.51,1.51,0,1,1-2.09-.45A1.52,1.52,0,0,1,150.31,323.44Z" style="fill: rgb(255, 255, 255); transform-origin: 149.041px 324.26px;" id="elzxlryh6jo0h" class="animable"></path><path d="M167.43,371.92a3,3,0,1,1,4.09-1.23A3,3,0,0,1,167.43,371.92Z" style="fill: rgb(255, 255, 255); transform-origin: 168.868px 369.287px;" id="elh3n0pk5mhui" class="animable"></path><path d="M91.86,273.18a1.51,1.51,0,1,1,2-.61A1.51,1.51,0,0,1,91.86,273.18Z" style="fill: rgb(255, 255, 255); transform-origin: 92.5422px 271.833px;" id="elr2zhmaykxtk" class="animable"></path><path d="M187,354.66a1.51,1.51,0,1,1,2.05-.61A1.51,1.51,0,0,1,187,354.66Z" style="fill: rgb(255, 255, 255); transform-origin: 187.721px 353.333px;" id="elkystcik0ek9" class="animable"></path><path d="M83.45,246.71a1.52,1.52,0,1,1,2-.62A1.52,1.52,0,0,1,83.45,246.71Z" style="fill: rgb(255, 255, 255); transform-origin: 84.1237px 245.347px;" id="eluar6ouebsxg" class="animable"></path><path d="M73.29,265.6a1.51,1.51,0,1,1,2-.62A1.51,1.51,0,0,1,73.29,265.6Z" style="fill: rgb(255, 255, 255); transform-origin: 73.9678px 264.251px;" id="el4rvh40d7u3r" class="animable"></path><path d="M70.07,251.17a1.51,1.51,0,1,1,2.05-.61A1.5,1.5,0,0,1,70.07,251.17Z" style="fill: rgb(255, 255, 255); transform-origin: 70.791px 249.845px;" id="elhk2j0txwbzb" class="animable"></path><path d="M154.15,348.23a1.51,1.51,0,1,1,2-.61A1.51,1.51,0,0,1,154.15,348.23Z" style="fill: rgb(255, 255, 255); transform-origin: 154.832px 346.883px;" id="el0ocy9zsom8sf" class="animable"></path><path d="M169.51,361a1.51,1.51,0,1,1,2-.61A1.51,1.51,0,0,1,169.51,361Z" style="fill: rgb(255, 255, 255); transform-origin: 170.192px 359.653px;" id="el6npt9p4nbae" class="animable"></path><path d="M159.07,366.4a1.51,1.51,0,1,1,2.05-.61A1.5,1.5,0,0,1,159.07,366.4Z" style="fill: rgb(255, 255, 255); transform-origin: 159.791px 365.075px;" id="els7j57ixnuf" class="animable"></path><path d="M251.17,392.87a3,3,0,1,1,1.9-3.82A3,3,0,0,1,251.17,392.87Z" style="fill: rgb(255, 255, 255); transform-origin: 250.231px 390.021px;" id="elkjecowxqid9" class="animable"></path><path d="M85.37,314.69a3,3,0,1,1,1.91-3.83A3,3,0,0,1,85.37,314.69Z" style="fill: rgb(255, 255, 255); transform-origin: 84.4434px 311.837px;" id="elcuiy37mtfeu" class="animable"></path><path d="M318.58,391.15a1.51,1.51,0,1,1,.95-1.92A1.52,1.52,0,0,1,318.58,391.15Z" style="fill: rgb(255, 255, 255); transform-origin: 318.1px 389.718px;" id="elwbc74bu4lui" class="animable"></path><path d="M343.16,392.09a1.51,1.51,0,1,1,.95-1.91A1.5,1.5,0,0,1,343.16,392.09Z" style="fill: rgb(255, 255, 255); transform-origin: 342.679px 390.659px;" id="elmps7svj9zw" class="animable"></path><path d="M117.24,363.93a1.51,1.51,0,1,1,1-1.91A1.51,1.51,0,0,1,117.24,363.93Z" style="fill: rgb(255, 255, 255); transform-origin: 116.803px 362.485px;" id="ely6nh0stg74" class="animable"></path><path d="M293.53,379.14a1.51,1.51,0,1,1,1-1.91A1.5,1.5,0,0,1,293.53,379.14Z" style="fill: rgb(255, 255, 255); transform-origin: 293.095px 377.695px;" id="elyxxz3svox" class="animable"></path><path d="M300.34,399.49a1.51,1.51,0,1,1,1-1.92A1.52,1.52,0,0,1,300.34,399.49Z" style="fill: rgb(255, 255, 255); transform-origin: 299.905px 398.044px;" id="elqoq09aasddc" class="animable"></path><path d="M245.54,422.73a1.51,1.51,0,1,1,1-1.92A1.52,1.52,0,0,1,245.54,422.73Z" style="fill: rgb(255, 255, 255); transform-origin: 245.105px 421.284px;" id="elm848iy70bn" class="animable"></path><path d="M287.62,392a1.51,1.51,0,1,1,1-1.92A1.52,1.52,0,0,1,287.62,392Z" style="fill: rgb(255, 255, 255); transform-origin: 287.185px 390.554px;" id="el1qowobrhfcw" class="animable"></path><path d="M244.66,383.9a1.51,1.51,0,1,1,1-1.91A1.51,1.51,0,0,1,244.66,383.9Z" style="fill: rgb(255, 255, 255); transform-origin: 244.223px 382.455px;" id="el9jfw6jx3mof" class="animable"></path><path d="M241.42,395.18a1.51,1.51,0,1,1,1-1.91A1.51,1.51,0,0,1,241.42,395.18Z" style="fill: rgb(255, 255, 255); transform-origin: 240.983px 393.735px;" id="elcg59vx1k8f" class="animable"></path><path d="M340.58,306.94a3,3,0,1,1,.74,4.2A3,3,0,0,1,340.58,306.94Z" style="fill: rgb(255, 255, 255); transform-origin: 343.028px 308.674px;" id="elq1nmbprrrrg" class="animable"></path><path d="M358.73,347.86a3,3,0,1,1,.74,4.2A3,3,0,0,1,358.73,347.86Z" style="fill: rgb(255, 255, 255); transform-origin: 361.178px 349.594px;" id="elzqbh9uj5rup" class="animable"></path><path d="M387.57,255.48a3,3,0,1,1,.74,4.21A3,3,0,0,1,387.57,255.48Z" style="fill: rgb(255, 255, 255); transform-origin: 390.013px 257.221px;" id="elyj2pkt4rt4b" class="animable"></path><path d="M354.31,253.6a3,3,0,1,1,.74,4.21A3,3,0,0,1,354.31,253.6Z" style="fill: rgb(255, 255, 255); transform-origin: 356.753px 255.341px;" id="el78ptjiqdrop" class="animable"></path><path d="M310,351.15a1.51,1.51,0,1,1,.37,2.1A1.51,1.51,0,0,1,310,351.15Z" style="fill: rgb(255, 255, 255); transform-origin: 311.238px 352.014px;" id="elt1ary7qpzi" class="animable"></path><path d="M337.24,345.92a1.51,1.51,0,1,1,.37,2.11A1.51,1.51,0,0,1,337.24,345.92Z" style="fill: rgb(255, 255, 255); transform-origin: 338.473px 346.791px;" id="elh1b7sqf8sk9" class="animable"></path><path d="M352.91,369.4a1.51,1.51,0,1,1,.37,2.1A1.51,1.51,0,0,1,352.91,369.4Z" style="fill: rgb(255, 255, 255); transform-origin: 354.148px 370.264px;" id="el7nfvx60wkni" class="animable"></path><path d="M192.88,400.94a1.51,1.51,0,1,1,.37,2.1A1.51,1.51,0,0,1,192.88,400.94Z" style="fill: rgb(255, 255, 255); transform-origin: 194.118px 401.805px;" id="elcv7gar13uwa" class="animable"></path><path d="M334.38,332.11a1.51,1.51,0,1,1,.37,2.1A1.5,1.5,0,0,1,334.38,332.11Z" style="fill: rgb(255, 255, 255); transform-origin: 335.616px 332.974px;" id="elsvs1edxesuo" class="animable"></path><path d="M420.51,271.13a1.51,1.51,0,1,1,.37,2.1A1.51,1.51,0,0,1,420.51,271.13Z" style="fill: rgb(255, 255, 255); transform-origin: 421.748px 271.994px;" id="eladeu79xe17j" class="animable"></path><path d="M378.22,315.35a1.51,1.51,0,1,1,.37,2.11A1.51,1.51,0,0,1,378.22,315.35Z" style="fill: rgb(255, 255, 255); transform-origin: 379.453px 316.221px;" id="elbqyu8ct8wol" class="animable"></path><path d="M393.23,347.1a1.51,1.51,0,1,1,.37,2.1A1.51,1.51,0,0,1,393.23,347.1Z" style="fill: rgb(255, 255, 255); transform-origin: 394.468px 347.964px;" id="elt356em4t8th" class="animable"></path><path d="M422.66,305.45a1.51,1.51,0,1,1,.37,2.11A1.52,1.52,0,0,1,422.66,305.45Z" style="fill: rgb(255, 255, 255); transform-origin: 423.895px 306.321px;" id="elxbb75m2er3i" class="animable"></path><path d="M377.56,297a1.51,1.51,0,1,1,.37,2.1A1.51,1.51,0,0,1,377.56,297Z" style="fill: rgb(255, 255, 255); transform-origin: 378.798px 297.864px;" id="el3hbvfzon62" class="animable"></path><path d="M317.44,130.54a1.51,1.51,0,0,1-3-.59,1.51,1.51,0,1,1,3,.59Z" style="fill: rgb(255, 255, 255); transform-origin: 315.94px 130.245px;" id="el9jurrkjmd5u" class="animable"></path><path d="M334.72,185.3a1.52,1.52,0,1,1-1.19-1.78A1.52,1.52,0,0,1,334.72,185.3Z" style="fill: rgb(255, 255, 255); transform-origin: 333.228px 185.01px;" id="elbl56cw7sixh" class="animable"></path><path d="M352.61,174.39a1.51,1.51,0,1,1-1.19-1.78A1.52,1.52,0,0,1,352.61,174.39Z" style="fill: rgb(255, 255, 255); transform-origin: 351.129px 174.092px;" id="elippw3zdb1y" class="animable"></path><path d="M401.31,215a1.51,1.51,0,1,1-1.19-1.78A1.52,1.52,0,0,1,401.31,215Z" style="fill: rgb(255, 255, 255); transform-origin: 399.829px 214.702px;" id="elvvvlxemfvr" class="animable"></path><path d="M235.37,118.46a1.51,1.51,0,1,1-1.19-1.78A1.51,1.51,0,0,1,235.37,118.46Z" style="fill: rgb(255, 255, 255); transform-origin: 233.89px 118.162px;" id="ela30h1v1j6rm" class="animable"></path><path d="M187.21,155.54a1.51,1.51,0,1,1-1.19-1.78A1.51,1.51,0,0,1,187.21,155.54Z" style="fill: rgb(255, 255, 255); transform-origin: 185.73px 155.242px;" id="el6txgecsei8d" class="animable"></path></g></g></g><g id="freepik--earth-globe--inject-19" class="animable" style="transform-origin: 267.22px 242.23px;"><g id="elamx2dbo2ea9"><circle cx="267.22" cy="242.23" r="96.18" style="fill: rgb(255, 255, 255); transform-origin: 267.22px 242.23px; transform: rotate(-45deg);" class="animable" id="el41qd1prnklj"></circle></g><g style="clip-path: url(&quot;#freepik--clip-path--inject-19&quot;); transform-origin: 267.22px 242.23px;" id="elth5y9oemuwe" class="animable"><g id="ell7lrsjkgqpc"><circle cx="267.22" cy="242.23" r="96.18" style="fill: #B0BEC5; transform-origin: 267.22px 242.23px; transform: rotate(-45deg);" class="animable" id="elbj29bbzvsyi"></circle></g><g id="el41yj82th26n"><circle cx="267.22" cy="242.23" r="96.18" style="fill: rgb(255, 255, 255); opacity: 0.7; transform-origin: 267.22px 242.23px; transform: rotate(-45deg);" class="animable" id="eli8wul5qzrml"></circle></g><polygon points="251.7 201.61 255.24 204.5 261.77 205.23 264.25 209.55 260.87 212.04 261.09 212.92 268.39 213.93 271.33 212.5 272.28 209.68 270.79 205.58 266.42 205.02 262.99 201.63 253.14 199.84 251.7 201.61" style="fill: #B0BEC5; transform-origin: 261.99px 206.885px;" id="elx3p9mc88hsl" class="animable"></polygon><path d="M334.36,288.35l-7.8-1.12-9.41-1-6.87,1.7-6.75.27-6.71,3.31-3.93,1.21-2.44.6-4,3.81-4,2.88-6.92-2.29v-6.59l-4.15-.61-4.43,1.1-1.16-1.83-.55-4.1-2.1-1.83-3,1.21-.33,2.44-3.71,1.15-4.32-3.16-2.65-5,1.79-7,6.53-1.16,2.16,1.12,2.66-.66,2.83-2.82,3.1.17,5.69,5.88,1.49-.61-1.7-5-2-2.33-.6-4.32,7.32-5.58-.93-8.47,2.83-3.76L282,240.2l2.1-1,4.27-4.59-.22-1.83-3.49,1.1-1.1-1.61-2.44.61-3.54,1.82,1.05-3.32,7.21-4.14,1.28-2.43,4.31,4.1,2.49,1.5,2.88-1.65-2-2.55-5.47-2.17-6.8-4.67L276,217l-5.53.43-3.32-2h-3.77l-.22,1,1.15,6.54,1.44,2-.24,7.59-5.31-2.45-.1-3.26-5.21-1.06-2.59-1.95L252,218l5.27-6.25-.88-5.42-2.38.82-2-1.61-1.49-3.15-1.61.16v3.76l-2.33,1.05-3-7.48-2-.67-3.43-.56-3.11,2.66,5.48,3.11,1.82,3.54-9.46-4-7-4.61-1.93-5.87-6.2-.34-3.72,4a35.43,35.43,0,0,1-2.88,2.59,38.17,38.17,0,0,1-5.1,2.21l.05,4-5,1.49,1.05,2.33,8.53-.71,5.36,3.61,1.92,7.75-.73,7.48,2.26,7.2-3.51,12.39,2.68,16.5,4.3,8.81,4.64,6.38,3.43-.38-2-3.27-2.44-2.22-2.31-4.6,1.88-.94,5.08,7.21,4,6.54,1.42,5.76,5.48,4,8.9,3.67,12.29.24,4.37,2.45,3.54,2.88,4.59,1.45,5.21.12,4.82-1.43s.32,2.27.6,3.38-1.89,5.64-1.89,5.64l-1.34,5,3,4.43,5.37.79,8.63,5.38,3.43.56.82,3.32.77,1.46a95.79,95.79,0,0,0,41-33.41l-.28-1.63,3.29-12.34L345.72,282Z" style="fill: #B0BEC5; transform-origin: 275.18px 261.875px;" id="eljgt5w4i2lxi" class="animable"></path><path d="M335.69,195.12l-3.48-3.6-4.31-4.11L325.37,181l4.15-.33-.33-2.27-2.94.49,2.17-1.71,2.27-2.21-.55-2.22-3.54-2.88-1.75-4.63a96.25,96.25,0,0,0-116.14.64l6,2.35L212.61,173l-4,1.93,1,6.09-1.61,1.1-1.61,3,1.21,3.93,3.88-.49-.62,4.15,3.77-.93,4.39-9.79-.21-3.71,6.09-2,.89-3L232.1,171l-.27-3.93,4.6-1.37s2.88-2.6,3.55-2.77a28.42,28.42,0,0,1,4,.18l4,1.83,4.65-1.15,3.38-3.43,5.21-.82a5.58,5.58,0,0,0,2.66.28c1.1-.27,4-2.65,4-2.65l7.42,2.4,3.15,1.33.83,3.32,3.43-.38.61-2.27,3.21.62.22,1.82-6.21,3.43,5,3.94,9.07,2.45,4.43,3.6,5-.76.56-2.49,1.66-.88-6.86-3-3.65.44,2.66-1.6-3.6-3.11,3.71-1.15,5.54,1.45,2.42,5,3.16,2.27,3.58,5.93,5.76,2.34,1.81,7.31,5.92,2.06.38,2.49.05,3.05,2.32,3.65.94,1.89,3.93-.27.84-4.21Z" style="fill: #B0BEC5; transform-origin: 271.04px 174.194px;" id="el0yjss7u926tg" class="animable"></path><path d="M333,172.09l.31,1.27-.23,3.82,1.44,2.94,2.65.28,1.05,4.21-2.94-.45,2.31,12.13-1.45,5.53,3.31,5.76,3.54,1.95,3,12,5.19,8.59,4.86,6.32,5.42.07.67-4.87.59-.75a97.71,97.71,0,0,0-2.17-11.78A95.65,95.65,0,0,0,333,172.09Z" style="fill: #B0BEC5; transform-origin: 347.86px 204.3px;" id="eloh6xow3a34" class="animable"></path><polygon points="281.51 183.4 265.3 180.6 258.93 182.41 258.42 187.01 255.05 184.79 250.45 187.11 251.82 194.53 256.52 196.42 258.36 191.49 262.51 193.99 270.86 198.27 273.78 204.37 281.36 210.25 290.28 206.39 289.23 203.12 286.3 199.85 283.66 191.1 284.94 186.78 281.51 183.4" style="fill: #B0BEC5; transform-origin: 270.365px 195.425px;" id="elx3363ljr8" class="animable"></polygon><polygon points="294.69 185.3 291.14 185.24 288.87 188.39 292.01 194.43 294.89 193.72 294.69 185.3" style="fill: #B0BEC5; transform-origin: 291.88px 189.835px;" id="el1zi5dmhlipd" class="animable"></polygon><polygon points="316.33 184.4 307.81 182.28 305.6 180.01 304 181.11 306.64 185.16 309.4 190.59 313.06 191.09 313.5 190.04 310.68 187.22 316.99 188 316.33 184.4" style="fill: #B0BEC5; transform-origin: 310.495px 185.55px;" id="el5h2ntkm8z0p" class="animable"></polygon><polygon points="271.49 280.43 270.82 281.53 277.96 281.88 281.39 284.32 285.71 283.72 286.65 280.9 281.34 281.27 271.49 280.43" style="fill: #B0BEC5; transform-origin: 278.735px 282.375px;" id="elkst43n354xa" class="animable"></polygon><polygon points="292.25 279.75 287.92 282.23 289.03 283.84 294.79 282.41 295.46 280.36 293.52 281.08 292.25 279.75" style="fill: #B0BEC5; transform-origin: 291.69px 281.795px;" id="el1tepjz4knp7" class="animable"></polygon><g id="elcp7jmqpr5wl"><g style="opacity: 0.2; transform-origin: 281.91px 238.339px;" class="animable" id="elfdf6asqt3jr"><polygon points="251.7 201.61 255.24 204.5 261.77 205.23 264.25 209.55 260.87 212.04 261.09 212.92 268.39 213.93 271.33 212.5 272.28 209.68 270.79 205.58 266.42 205.02 262.99 201.63 253.14 199.84 251.7 201.61" style="fill: rgb(255, 255, 255); transform-origin: 261.99px 206.885px;" id="el98d3nyq3gr" class="animable"></polygon><path d="M334.36,288.35l-7.8-1.12-9.41-1-6.87,1.7-6.75.27-6.71,3.31-3.93,1.21-2.44.6-4,3.81-4,2.88-6.92-2.29v-6.59l-4.15-.61-4.43,1.1-1.16-1.83-.55-4.1-2.1-1.83-3,1.21-.33,2.44-3.71,1.15-4.32-3.16-2.65-5,1.79-7,6.53-1.16,2.16,1.12,2.66-.66,2.83-2.82,3.1.17,5.69,5.88,1.49-.61-1.7-5-2-2.33-.6-4.32,7.32-5.58-.93-8.47,2.83-3.76L282,240.2l2.1-1,4.27-4.59-.22-1.83-3.49,1.1-1.1-1.61-2.44.61-3.54,1.82,1.05-3.32,7.21-4.14,1.28-2.43,4.31,4.1,2.49,1.5,2.88-1.65-2-2.55-5.47-2.17-6.8-4.67L276,217l-5.53.43-3.32-2h-3.77l-.22,1,1.15,6.54,1.44,2-.24,7.59-5.31-2.45-.1-3.26-5.21-1.06-2.59-1.95L252,218l5.27-6.25-.88-5.42-2.38.82-2-1.61-1.49-3.15-1.61.16v3.76l-2.33,1.05-3-7.48-2-.67-3.43-.56-3.11,2.66,5.48,3.11,1.82,3.54-9.46-4-7-4.61-1.93-5.87-6.2-.34-3.72,4a35.43,35.43,0,0,1-2.88,2.59,38.17,38.17,0,0,1-5.1,2.21l.05,4-5,1.49,1.05,2.33,8.53-.71,5.36,3.61,1.92,7.75-.73,7.48,2.26,7.2-3.51,12.39,2.68,16.5,4.3,8.81,4.64,6.38,3.43-.38-2-3.27-2.44-2.22-2.31-4.6,1.88-.94,5.08,7.21,4,6.54,1.42,5.76,5.48,4,8.9,3.67,12.29.24,4.37,2.45,3.54,2.88,4.59,1.45,5.21.12,4.82-1.43s.32,2.27.6,3.38-1.89,5.64-1.89,5.64l-1.34,5,3,4.43,5.37.79,8.63,5.38,3.43.56.82,3.32.77,1.46a95.79,95.79,0,0,0,41-33.41l-.28-1.63,3.29-12.34L345.72,282Z" style="fill: rgb(255, 255, 255); transform-origin: 275.18px 261.875px;" id="el8v797qgx2ug" class="animable"></path><path d="M335.69,195.12l-3.48-3.6-4.31-4.11L325.37,181l4.15-.33-.33-2.27-2.94.49,2.17-1.71,2.27-2.21-.55-2.22-3.54-2.88-1.75-4.63a96.25,96.25,0,0,0-116.14.64l6,2.35L212.61,173l-4,1.93,1,6.09-1.61,1.1-1.61,3,1.21,3.93,3.88-.49-.62,4.15,3.77-.93,4.39-9.79-.21-3.71,6.09-2,.89-3L232.1,171l-.27-3.93,4.6-1.37s2.88-2.6,3.55-2.77a28.42,28.42,0,0,1,4,.18l4,1.83,4.65-1.15,3.38-3.43,5.21-.82a5.58,5.58,0,0,0,2.66.28c1.1-.27,4-2.65,4-2.65l7.42,2.4,3.15,1.33.83,3.32,3.43-.38.61-2.27,3.21.62.22,1.82-6.21,3.43,5,3.94,9.07,2.45,4.43,3.6,5-.76.56-2.49,1.66-.88-6.86-3-3.65.44,2.66-1.6-3.6-3.11,3.71-1.15,5.54,1.45,2.42,5,3.16,2.27,3.58,5.93,5.76,2.34,1.81,7.31,5.92,2.06.38,2.49.05,3.05,2.32,3.65.94,1.89,3.93-.27.84-4.21Z" style="fill: rgb(255, 255, 255); transform-origin: 271.04px 174.194px;" id="elr8b1ahdpu8" class="animable"></path><path d="M333,172.09l.31,1.27-.23,3.82,1.44,2.94,2.65.28,1.05,4.21-2.94-.45,2.31,12.13-1.45,5.53,3.31,5.76,3.54,1.95,3,12,5.19,8.59,4.86,6.32,5.42.07.67-4.87.59-.75a97.71,97.71,0,0,0-2.17-11.78A95.65,95.65,0,0,0,333,172.09Z" style="fill: rgb(255, 255, 255); transform-origin: 347.86px 204.3px;" id="elgn4s2qzgwum" class="animable"></path><polygon points="281.51 183.4 265.3 180.6 258.93 182.41 258.42 187.01 255.05 184.79 250.45 187.11 251.82 194.53 256.52 196.42 258.36 191.49 262.51 193.99 270.86 198.27 273.78 204.37 281.36 210.25 290.28 206.39 289.23 203.12 286.3 199.85 283.66 191.1 284.94 186.78 281.51 183.4" style="fill: rgb(255, 255, 255); transform-origin: 270.365px 195.425px;" id="eldsfz16qnuge" class="animable"></polygon><polygon points="294.69 185.3 291.14 185.24 288.87 188.39 292.01 194.43 294.89 193.72 294.69 185.3" style="fill: rgb(255, 255, 255); transform-origin: 291.88px 189.835px;" id="elwk52qpx0x6" class="animable"></polygon><polygon points="316.33 184.4 307.81 182.28 305.6 180.01 304 181.11 306.64 185.16 309.4 190.59 313.06 191.09 313.5 190.04 310.68 187.22 316.99 188 316.33 184.4" style="fill: rgb(255, 255, 255); transform-origin: 310.495px 185.55px;" id="el45ga6e1ry8z" class="animable"></polygon><polygon points="271.49 280.43 270.82 281.53 277.96 281.88 281.39 284.32 285.71 283.72 286.65 280.9 281.34 281.27 271.49 280.43" style="fill: rgb(255, 255, 255); transform-origin: 278.735px 282.375px;" id="elgn2pe7nwipo" class="animable"></polygon><polygon points="292.25 279.75 287.92 282.23 289.03 283.84 294.79 282.41 295.46 280.36 293.52 281.08 292.25 279.75" style="fill: rgb(255, 255, 255); transform-origin: 291.69px 281.795px;" id="el4g2v30fudx" class="animable"></polygon></g></g></g></g><g id="freepik--Car--inject-19" class="animable animator-hidden" style="transform-origin: 223.646px 289.884px;"><path d="M126.54,321.68a16.67,16.67,0,0,1,4.11-7.37c3.52-3.95,16.8-4.59,16.8-4.59s-7.37-7.51-15.78-6.84-11.21,7.44-10,12.27A9.84,9.84,0,0,0,126.54,321.68Z" style="fill: rgb(38, 50, 56); stroke: rgb(38, 50, 56); stroke-linecap: round; stroke-linejoin: round; transform-origin: 134.426px 312.259px;" id="elgx8rd16189h" class="animable"></path><g id="elngenn7jcqlf"><ellipse cx="144.67" cy="317.89" rx="13.24" ry="18" style="fill: rgb(38, 50, 56); stroke: rgb(38, 50, 56); stroke-linecap: round; stroke-linejoin: round; transform-origin: 144.67px 317.89px; transform: rotate(-48.27deg);" class="animable" id="elkcgwd9gkr7"></ellipse></g><path d="M155.7,331.27c-4.09,4.58-13.32,3-20.62-3.5s-9.91-15.51-5.83-20.09,13.31-3,20.62,3.51S159.78,326.69,155.7,331.27Z" style="fill: rgb(38, 50, 56); stroke: rgb(38, 50, 56); stroke-linecap: round; stroke-linejoin: round; transform-origin: 142.476px 319.475px;" id="el24w2k2b45hm" class="animable"></path><path d="M152.67,328.89C150,332.39,143,331.54,137,327s-8.69-11.1-6-14.61,9.69-2.65,15.69,1.92S155.34,325.38,152.67,328.89Z" style="fill: rgb(38, 50, 56); stroke: rgb(38, 50, 56); stroke-linecap: round; stroke-linejoin: round; transform-origin: 141.832px 320.639px;" id="elm4qu2e6q4l" class="animable"></path><path d="M153.65,326.28a6.63,6.63,0,0,0,0-1.34l-8.89-2.67a5.2,5.2,0,0,0-1.19-2.45l6.54-2.25a22,22,0,0,0-1.78-1.85l-6.07,2.87a4.67,4.67,0,0,0-3.68-1l-2.16-7.38a10.54,10.54,0,0,0-1.27.05l2.44,7.92a2.72,2.72,0,0,0-.15,2.86l-7.33-6.91a5.7,5.7,0,0,0-.19,1.45l9.16,7.69-6.42-.61c.34.45.69.89,1.08,1.33l5.5-.59a6.42,6.42,0,0,0,2.27,1.25l-2,4c.3.17.59.33.89.48l1.79-4.37a2.36,2.36,0,0,0,2.09-.63l3.33,6.87a8.34,8.34,0,0,0,2.06-.27l-5-7.3c0-.11.06-.22.08-.33Z" style="fill: rgb(255, 255, 255); stroke: rgb(38, 50, 56); stroke-linecap: round; stroke-linejoin: round; stroke-width: 0.5px; transform-origin: 141.802px 320.604px;" id="el9qy3k2gfrh" class="animable"></path><path d="M142,322.07c-.31.35-1,.23-1.58-.27s-.76-1.19-.44-1.54,1-.23,1.58.27S142.31,321.71,142,322.07Z" style="fill: rgb(255, 255, 255); stroke: rgb(38, 50, 56); stroke-linecap: round; stroke-linejoin: round; transform-origin: 140.988px 321.165px;" id="elotzcu9pb2ig" class="animable"></path><path d="M297.43,306.25c-.63,9.2-10.3,16-21.61,15.27s-20-8.86-19.35-18.06,10.3-16,21.61-15.26S298.06,297.05,297.43,306.25Z" style="fill: rgb(38, 50, 56); stroke: rgb(38, 50, 56); stroke-linecap: round; stroke-linejoin: round; transform-origin: 276.949px 304.859px;" id="elymgszyqrk9n" class="animable"></path><g id="elu6y1j5a1ppj"><ellipse cx="274.67" cy="305.83" rx="15.77" ry="19.88" style="fill: rgb(38, 50, 56); stroke: rgb(38, 50, 56); stroke-linecap: round; stroke-linejoin: round; transform-origin: 274.67px 305.83px; transform: rotate(-86.11deg);" class="animable" id="el5kxuhnqo5nj"></ellipse></g><path d="M290,306.36c-.43,6.43-7.65,11.18-16.11,10.6s-15-6.25-14.52-12.68,7.65-11.18,16.11-10.6S290.46,299.93,290,306.36Z" style="fill: rgb(38, 50, 56); stroke: rgb(38, 50, 56); stroke-linecap: round; stroke-linejoin: round; transform-origin: 274.684px 305.32px;" id="ellu2zsbo7mkn" class="animable"></path><path d="M289.71,308.18l-7-4a3.69,3.69,0,0,0-1-2.05v0l6.31-2.17a11.41,11.41,0,0,0-1.06-1.26L281,301.5a6.38,6.38,0,0,0-3.16-1.19l1.13-6.08q-.54-.14-1.08-.24l-1.38,6.31a5.64,5.64,0,0,0-3.49,1.5l-5.42-7a11.79,11.79,0,0,0-1.16.48l5.75,7.82a3.15,3.15,0,0,0-.21.93,3.23,3.23,0,0,0,.3,1.59l-12.88-1.68c0,.13,0,.25,0,.38s0,.48,0,.72l13.71,2,1,.42a.05.05,0,0,1,0,0l-9.66,6.21c.4.29.82.56,1.26.82l9.91-6.36a7.14,7.14,0,0,0,1.49.26,6.68,6.68,0,0,0,1.91-.14l-2.1,8.67,2.3-.39,1.11-8.72a3.89,3.89,0,0,0,2.4-3.12l6.19,5.47A9.45,9.45,0,0,0,289.71,308.18Z" style="fill: rgb(255, 255, 255); stroke: rgb(38, 50, 56); stroke-linecap: round; stroke-linejoin: round; stroke-width: 0.5px; transform-origin: 274.555px 305.455px;" id="elfb0cga5u4db" class="animable"></path><path d="M279.88,304.52a2.29,2.29,0,0,1-2.66,1.75c-1.4-.09-2.47-1-2.4-2.09a2.29,2.29,0,0,1,2.66-1.75C278.88,302.52,280,303.46,279.88,304.52Z" style="fill: rgb(255, 255, 255); stroke: rgb(38, 50, 56); stroke-linecap: round; stroke-linejoin: round; transform-origin: 277.353px 304.35px;" id="elbiqfk4ajft" class="animable"></path><path d="M190,245.7s-1.7,1.15-4,3.07a24.9,24.9,0,0,0-3.22,2s-7.43,7.67-9.38,12.55a19.71,19.71,0,0,0-1.27,9.33l0,0a8.86,8.86,0,0,0,.59,2.05c1.23,3,4.14,7,6.39,10.22s7.85,4.45,7.85,4.45l17.9-32.89S196.77,245.29,190,245.7Z" style="fill: rgb(38, 50, 56); stroke: rgb(38, 50, 56); stroke-linecap: round; stroke-linejoin: round; transform-origin: 188.44px 267.529px;" id="elgrhozy3kri6" class="animable"></path><path d="M189.64,251.94a4.88,4.88,0,0,0-1.87,5.69,76.72,76.72,0,0,1,2.4,10.19s-.37,2.65,2.23,6.16,15,13.16,16.2,13.42,4.24,1.77,6.53-1.94S199.27,257,197.27,253.6,191.24,250.39,189.64,251.94Z" style="fill: rgb(38, 50, 56); stroke: rgb(255, 255, 255); stroke-linecap: round; stroke-linejoin: round; transform-origin: 201.407px 269.398px;" id="eltxsn17k0x9k" class="animable"></path><path d="M207.19,285.2a57.48,57.48,0,0,1-11.48-9c-5.86-5.91-5.12-4.48-8.64-8.62s-4.49-5.39-6.91-3,.12,4.24,1.36,7.24-.24,6.88.56,11.89,11.48,7.13,16,7.5,10.45-.67,11.69-2.5S207.19,285.2,207.19,285.2Z" style="fill: rgb(38, 50, 56); stroke: rgb(255, 255, 255); stroke-linecap: round; stroke-linejoin: round; transform-origin: 194.585px 277.33px;" id="elril4n754o6" class="animable"></path><path d="M183.85,286.2s2.64-10,5.25-7.68c2.82,2.51,12.89,9.33,9.64,10.72S188.12,290.71,183.85,286.2Z" style="fill: rgb(255, 255, 255); stroke: rgb(38, 50, 56); stroke-linecap: round; stroke-linejoin: round; transform-origin: 191.614px 284.125px;" id="elv3yjfnd1vm" class="animable"></path><path d="M195.77,274.93l7.33,5c4.57,3.1,6.14,5.55,9.22,6.85s9.79.45,15.73-.77,9.86-1.84,9.18-4.52-7.11-7.86-12.74-11-11.82-3.63-12.37-2.06.34,6.17-6.71,5.68S194.63,273.42,195.77,274.93Z" style="fill: rgb(255, 255, 255); stroke: rgb(38, 50, 56); stroke-linecap: round; stroke-linejoin: round; transform-origin: 216.437px 277.497px;" id="el3z7cq7gccgo" class="animable"></path><path d="M190.39,255.25s2.49,3.07,2.63,4.36-.37,2.65-.94,5.26-1.47,7.67,2.08,9.71,13.9,4.71,15.64,4.46,5.28-.11,9.95-2.24l1.95-1.26-10.23-13.79-3.18-4.69s3.64-3.2,6.8-4.19,12.13-4.51,12.13-4.51l.12-2.49s-9.57,1.48-15.27,2.55-8.86,2.06-12.87,3.08S192,253.51,190.39,255.25Z" style="fill: rgb(255, 255, 255); stroke: rgb(38, 50, 56); stroke-linecap: round; stroke-linejoin: round; transform-origin: 208.865px 262.463px;" id="elq6umhkdt9e" class="animable"></path><path d="M199.62,261.59l2.79.38,2.15-1.74-3.86-2.61s-6.89-2.29-9.74-2.89a7.19,7.19,0,0,0-.57.52s2.49,3.07,2.63,4.36a7.85,7.85,0,0,1-.31,2.57A24.31,24.31,0,0,1,199.62,261.59Z" style="fill: rgb(255, 255, 255); stroke: rgb(38, 50, 56); stroke-linecap: round; stroke-linejoin: round; transform-origin: 197.475px 258.455px;" id="elyqsg6gacr7l" class="animable"></path><path d="M192.08,264.87s2.64-1.52,7.13.09,22.71,9.58,22.71,9.58l-5.47-4.77s-8.06-4.49-14.4-6.29S192.67,263.11,192.08,264.87Z" style="fill: rgb(38, 50, 56); stroke: rgb(38, 50, 56); stroke-linecap: round; stroke-linejoin: round; transform-origin: 207px 268.594px;" id="elw3hqcjh8vrd" class="animable"></path><path d="M200.86,271.83l-4.12-4.26a4.71,4.71,0,0,0-3.69,1.51,4.48,4.48,0,0,0-1,3.05,4.8,4.8,0,0,0,2.09,2.45,29.28,29.28,0,0,0,4.72,1.94A7.35,7.35,0,0,1,200.86,271.83Z" style="fill: rgb(38, 50, 56); stroke: rgb(38, 50, 56); stroke-linecap: round; stroke-linejoin: round; transform-origin: 196.452px 272.042px;" id="elthv8pq766xr" class="animable"></path><path d="M180,252.78s-29.91,8-34.57,9.06-17.29,9.89-22.46,15.28a34.52,34.52,0,0,0-8.18,16.3,26,26,0,0,0,.81,13.63c2.07,5.92,6,11.18,7.91,12.87s4.4,3.9,4.4,3.9-6.25-8.93-1.66-15.5,15.16-3,21.3.66,15.28,15.74,15.28,15.74,58.16-8.34,72.78-7.88,20.25-1.26,20.25-1.26-5-9.71.71-17.71,16.52-9.22,23.74-7.64c11.65,2.54,20.44,13.29,19.57,24,0,0,19.33-6.72,26.33-12.76s7.74-25.85,6.13-32.93-6.71-12.6-16.91-18.83-17.9-8.53-30.23-8.91-36.6,5.89-36.6,5.89-21-7.94-24-6.5S209.46,261.31,209.3,264s16,19.26,16,19.26-20,5.09-30.73,4-18.75-9.37-20.55-12.7-3.27-3.43-3.27-3.43l-3.07.59a14.71,14.71,0,0,1,4.09-10C176.1,257.18,180,252.78,180,252.78Z" style="fill: #B0BEC5; stroke: rgb(38, 50, 56); stroke-linecap: round; stroke-linejoin: round; transform-origin: 223.646px 282.368px;" id="el9htu5ivs7c" class="animable"></path><path d="M285.75,282a64.66,64.66,0,0,0-24.34,2.17c-12.75,3.77-19.77,10.19-19.77,10.19s15.16-10.49,32.29-10.73,21.3,2.07,29.46,2.22,11.49-3.34,11.49-3.34-11.71,3.29-29.13-.51" style="fill: rgb(255, 255, 255); transform-origin: 278.26px 288.015px;" id="el9xxu6dunc5p" class="animable"></path><path d="M118.22,297.16s5.24-4.71,16.64-5.5,24,1.5,24,1.5-18.13-1.62-27.71.5S118.22,297.16,118.22,297.16Z" style="fill: rgb(255, 255, 255); transform-origin: 138.54px 294.327px;" id="elp3s7fgp2gbq" class="animable"></path><path d="M226.18,313.57c9.09-.7,19.68-.73,28.66-.56a19.24,19.24,0,0,1-.61-10c-5.28,1.65-11.68,3.5-19.21,5.41-24.89,6.32-48.32,2.89-71.43-.48a82.3,82.3,0,0,0-18.55-.35c.9.44,1.74.9,2.51,1.36,4.67,2.77,11,10.41,13.86,13.92C181.54,315.51,208.12,315,226.18,313.57Z" style="fill: rgb(38, 50, 56); transform-origin: 199.94px 312.94px;" id="elp6gtv4xpv3o" class="animable"></path><path d="M118.25,312.84a29.78,29.78,0,0,0,5.26,7.08c1.94,1.68,4.4,3.9,4.4,3.9S123.2,317.08,125,311C122.32,311.66,120,312.3,118.25,312.84Z" style="fill: rgb(38, 50, 56); transform-origin: 123.08px 317.41px;" id="elcz44gue6sy" class="animable"></path><path d="M289.77,277.51s-9.48-3.7-26.73.37c-9.27,2.19-18.17,10.31-27,13.73-6.61,2.57-11.38,4.52-18.84,5.6,0,0,12.86.42,31.91-8.72s27.4-10.27,40.13-7.58C299.52,283.08,289.77,277.51,289.77,277.51Z" style="fill: rgb(38, 50, 56); transform-origin: 255.575px 286.591px;" id="el636exk0e84v" class="animable"></path><path d="M249,294s13.44-10,25.91-9.35S294,289.17,294,289.17A58.89,58.89,0,0,0,249,294Z" style="fill: rgb(38, 50, 56); transform-origin: 271.5px 289.31px;" id="el4uv6vgq3y2y" class="animable"></path><path d="M118.52,304.08s5.37-8,27.62-6.25,48.1,7.77,55.8,8.43a150.62,150.62,0,0,0,18.44-.07s-19.54,3.58-37.8,1.3-42.91-9.71-62-.56C120.63,306.93,116.62,308.1,118.52,304.08Z" style="fill: rgb(38, 50, 56); transform-origin: 169.194px 302.915px;" id="eliez0zts1sf7" class="animable"></path><path d="M190,245.7s-7.25,2.41-9.45,3.82-11.7,12.17-13.13,15.85a29.45,29.45,0,0,0-1.48,8.71l7.1-1.6s-3.39-8.15,10.82-20.54c7.69-6.7,10.25-3.87,10-5.41S190,245.7,190,245.7Z" style="fill: rgb(38, 50, 56); stroke: rgb(38, 50, 56); stroke-linecap: round; stroke-linejoin: round; transform-origin: 179.908px 259.808px;" id="el4ww99xnq1c2" class="animable"></path><path d="M318.64,276.89s-5.67,4.73-10.42,5.19-20-.54-22.33-1.06,3.63-7.5,9.2-7.94S308.31,273.31,318.64,276.89Z" style="fill: rgb(255, 255, 255); stroke: rgb(38, 50, 56); stroke-linecap: round; stroke-linejoin: round; transform-origin: 302.006px 277.579px;" id="ellxf761a1bxb" class="animable"></path><path d="M293.76,241.93s4.12,7.7,6.4,8.7,19.67,5.62,19.44,4.41-5.77-6.24-5.77-6.24S301.18,241.4,293.76,241.93Z" style="fill: rgb(255, 255, 255); stroke: rgb(38, 50, 56); stroke-linecap: round; stroke-linejoin: round; transform-origin: 306.681px 248.572px;" id="ell4r999hbxsp" class="animable"></path><path d="M117.89,284.67s4.14,1.56,15-1,25.43-10.2,33-9.55" style="fill: none; stroke: rgb(38, 50, 56); stroke-linecap: round; stroke-linejoin: round; transform-origin: 141.89px 279.611px;" id="elwl1cn856ef" class="animable"></path><path d="M125.26,285.11l.1-.17c1-1.66,9.08-14.85,27-24.59l-8.55,1.95s-13.14,6.25-22.06,15.92c0,0-3.32,4.58-3.89,6.45C117.89,284.67,119.75,285.24,125.26,285.11Z" style="fill: rgb(38, 50, 56); stroke: rgb(38, 50, 56); stroke-linecap: round; stroke-linejoin: round; transform-origin: 135.11px 272.74px;" id="elhkf2muh0efw" class="animable"></path><path d="M247.51,276.76s36.14-3.07,40.62-5a13.3,13.3,0,0,0,8.07-11.37c.39-5.55-7-9.82-7-9.82l.59,1.13-6.69-1.3.55,1.29s-18.64-2.21-23.14-2.78-10.5-1-10.5-1,11.8,4.67,11.42,8.37-8.42,13.51-14.43,16S242.88,276.8,247.51,276.76Z" style="fill: rgb(38, 50, 56); stroke: rgb(38, 50, 56); stroke-linecap: round; stroke-linejoin: round; transform-origin: 269.715px 262.335px;" id="eleqsva0wgrw" class="animable"></path><path d="M248.6,246.72s13.79,6.17,16.71,7.22,3,6.34-1.42,12.31-28.57,16.26-28.57,16.26L232.48,284l-16.9-15s-4.34-3.26-2.82-7.34,11.36-18.34,12.58-19.12,1.45-2.79,6.39-1.34S248.6,246.72,248.6,246.72Z" style="fill: rgb(255, 255, 255); stroke: rgb(38, 50, 56); stroke-linecap: round; stroke-linejoin: round; transform-origin: 239.906px 262.344px;" id="elnw09g17nuo" class="animable"></path><path d="M213.53,265.48l49.5-2.83a47.35,47.35,0,0,1-7.07,7.92c-4,3.39-23.48,12.16-23.48,12.16Z" style="fill: #B0BEC5; transform-origin: 238.28px 272.69px;" id="el57ug5oh5xn" class="animable"></path><g id="eltsid6y02muj"><path d="M213.53,265.48l49.5-2.83a47.35,47.35,0,0,1-7.07,7.92c-4,3.39-23.48,12.16-23.48,12.16Z" style="fill: rgb(255, 255, 255); opacity: 0.5; transform-origin: 238.28px 272.69px;" class="animable" id="el80phq24zker"></path></g><polygon points="214.38 263.79 256.63 263.08 213.53 265.48 214.38 263.79" style="fill: rgb(38, 50, 56); transform-origin: 235.08px 264.28px;" id="el481j860oxlv" class="animable"></polygon><polygon points="218.01 268.42 258.7 263.53 216.59 269.17 218.01 268.42" style="fill: rgb(38, 50, 56); transform-origin: 237.645px 266.35px;" id="elguz1rxpx2kq" class="animable"></polygon><path d="M265.31,253.94c-.6-.21-1.67-.65-3-1.21,1.29,2.07,2.79,6.42-1.6,12.26-4.22,5.6-19.69,13-30.2,17.26l2,1.74,2.84-1.48s24.11-10.3,28.57-16.26S268.24,255,265.31,253.94Z" style="fill: rgb(38, 50, 56); stroke: rgb(38, 50, 56); stroke-linecap: round; stroke-linejoin: round; transform-origin: 248.958px 268.36px;" id="el190k9yadzho" class="animable"></path><path d="M235.32,282.51l-16.38-12.62s-6.08-4.9-4.24-8.49,12.9-18.63,14.72-19.28c1.21-.44,4.8,0,7.25.48-5.3-1.67-10.66-3-12.09-2.38-3.05,1.44-15.12,21.09-15.28,23.78s16,19.26,16,19.26l2.77,2.71Z" style="fill: rgb(38, 50, 56); stroke: rgb(38, 50, 56); stroke-linecap: round; stroke-linejoin: round; transform-origin: 222.984px 263.018px;" id="elavk5ld75yo" class="animable"></path><path d="M283.12,250.39s7.27,11.54-6.35,23" style="fill: none; stroke: rgb(255, 255, 255); stroke-linecap: round; stroke-linejoin: round; transform-origin: 280.914px 261.89px;" id="eln6ee8pryooa" class="animable"></path><path d="M289.22,250.56s6.8,11.44-5.28,21.91" style="fill: none; stroke: rgb(255, 255, 255); stroke-linecap: round; stroke-linejoin: round; transform-origin: 287.534px 261.515px;" id="elcfeiir4cmyw" class="animable"></path><path d="M127.68,284.65s11.94-13.65,25.08-19.91c0,0,8.6-2.93,18.79-5.52" style="fill: none; stroke: rgb(38, 50, 56); stroke-linecap: round; stroke-linejoin: round; transform-origin: 149.615px 271.935px;" id="eleedtggplrkg" class="animable"></path><path d="M167,273.83s4,12,3.94,14.63-3.14,5.28-1.67,8.42S187.64,317,187.64,317l1.89,1.77" style="fill: none; stroke: rgb(38, 50, 56); stroke-linecap: round; stroke-linejoin: round; transform-origin: 178.265px 296.3px;" id="ell2y945d29t" class="animable"></path><path d="M231.38,284.55a7.25,7.25,0,0,1,4.47,2.31c1.55,2,4.31,19,4.53,22.55a26.12,26.12,0,0,1-.2,4.9" style="fill: none; stroke: rgb(38, 50, 56); stroke-linecap: round; stroke-linejoin: round; transform-origin: 235.898px 299.43px;" id="elkdiloh5g36a" class="animable"></path><path d="M158.23,275.39s-3,9.29-5.35,11.61S144.45,293,142,297.23a17.44,17.44,0,0,0-2.31,8.29" style="fill: none; stroke: rgb(38, 50, 56); stroke-linecap: round; stroke-linejoin: round; transform-origin: 148.96px 290.455px;" id="el39k08yg5ffg" class="animable"></path><path d="M288.13,271.75c12.73-5.66,6-20.94,6-20.94l19.58,3.77s8.29,11.43-3.3,19.69" style="fill: none; stroke: rgb(38, 50, 56); stroke-linecap: round; stroke-linejoin: round; transform-origin: 302.356px 262.54px;" id="elsulfswvv2" class="animable"></path><path d="M332.61,276s-1.56,5.63-8.36,9.45-11.09,5.21-12,6.34-2.07,5.69,2.16,9.1,11.92-5.2,14.34-11A62.45,62.45,0,0,0,332.61,276Z" style="fill: rgb(38, 50, 56); stroke: rgb(38, 50, 56); stroke-linecap: round; stroke-linejoin: round; transform-origin: 321.997px 288.832px;" id="elhn7o8mvn85" class="animable"></path><path d="M303.58,295s-1.08,8.72-.55,9.34,8-2.41,8-2.41-2.85-5.93-2.33-8.3Z" style="fill: rgb(38, 50, 56); stroke: rgb(38, 50, 56); stroke-linecap: round; stroke-linejoin: round; transform-origin: 306.957px 299.027px;" id="eluf0widp6rhr" class="animable"></path><path d="M303,304.34s-1.08,5.73-.1,5.78,18.36-2.79,26-14.23" style="fill: none; stroke: rgb(38, 50, 56); stroke-linecap: round; stroke-linejoin: round; transform-origin: 315.694px 303.005px;" id="elftr1se8dmfd" class="animable"></path><path d="M223.27,280.8l-4.09,2.91A26.14,26.14,0,0,0,214.6,285c-1.17.61-3.88,4.33-4.21,5.82a2.39,2.39,0,0,0,2.14,2.88c1.35.12,8.7-5.87,9.41-6.75a8.08,8.08,0,0,0,1.1-2.69l2.32-1.91Z" style="fill: #B0BEC5; stroke: rgb(38, 50, 56); stroke-linecap: round; stroke-linejoin: round; transform-origin: 217.849px 287.251px;" id="eleqo11i4zjo" class="animable"></path><path d="M172.64,272.06s-1.39-2.34.71-8.69,12.6-14.6,12.6-14.6" style="fill: none; stroke: rgb(255, 255, 255); stroke-linecap: round; stroke-linejoin: round; transform-origin: 179.069px 260.415px;" id="elggs2d95kz6p" class="animable"></path><path d="M204,249s-2.29-4.91-6.26-6-7.73,1.68-9.06,3.91-1,7.56.91,8.4a58.13,58.13,0,0,0,5.88,1.92s4.11,2.36,7.25,2.42S207.3,255.79,204,249Z" style="fill: rgb(255, 255, 255); stroke: rgb(38, 50, 56); stroke-linecap: round; stroke-linejoin: round; transform-origin: 196.877px 251.203px;" id="elop8y6gcohym" class="animable"></path><path d="M205.75,254.3A18.42,18.42,0,0,0,204,249a13.85,13.85,0,0,0-4.24-5.05c-1.13,2.55-3.62,7.81-5.55,9.44,0,0,6.26,4.09,8.88,3.62A3.4,3.4,0,0,0,205.75,254.3Z" style="fill: rgb(38, 50, 56); stroke: rgb(38, 50, 56); stroke-linecap: round; stroke-linejoin: round; transform-origin: 199.98px 250.499px;" id="elsumgmjyu3r" class="animable"></path></g><defs><clipPath id="freepik--clip-path--inject-19"><circle cx="267.22" cy="242.23" r="96.18" transform="translate(-93.01 259.9) rotate(-45)" style="fill:#fff"></circle></clipPath></defs><defs>     <filter id="active" height="200%">         <feMorphology in="SourceAlpha" result="DILATED" operator="dilate" radius="2"></feMorphology>                <feFlood flood-color="#32DFEC" flood-opacity="1" result="PINK"></feFlood>        <feComposite in="PINK" in2="DILATED" operator="in" result="OUTLINE"></feComposite>        <feMerge>            <feMergeNode in="OUTLINE"></feMergeNode>            <feMergeNode in="SourceGraphic"></feMergeNode>        </feMerge>    </filter>    <filter id="hover" height="200%">        <feMorphology in="SourceAlpha" result="DILATED" operator="dilate" radius="2"></feMorphology>                <feFlood flood-color="#ff0000" flood-opacity="0.5" result="PINK"></feFlood>        <feComposite in="PINK" in2="DILATED" operator="in" result="OUTLINE"></feComposite>        <feMerge>            <feMergeNode in="OUTLINE"></feMergeNode>            <feMergeNode in="SourceGraphic"></feMergeNode>        </feMerge>            <feColorMatrix type="matrix" values="0   0   0   0   0                0   1   0   0   0                0   0   0   0   0                0   0   0   1   0 "></feColorMatrix>    </filter></defs></svg>